<svg width="50" height="44" viewBox="0 0 50 44" fill="none" xmlns="http://www.w3.org/2000/svg">
<path d="M49 22C49 33.4817 38.3788 43 25 43C11.6212 43 1 33.4817 1 22C1 10.5183 11.6212 1 25 1C38.3788 1 49 10.5183 49 22Z" stroke="#DAE0DC" stroke-width="2"/>
<path d="M25 43C29.7881 43 34.2487 41.7731 37.9936 39.6591C41.1967 37.8509 43.8762 35.3937 45.7892 32.5C47.8313 29.4112 49 25.825 49 22C49 18.7523 48.1575 15.6769 46.6532 12.9318C44.8037 9.55676 41.954 6.68117 38.44 4.59912C34.6054 2.32708 29.9798 1 25 1" stroke="#DFB314" stroke-width="2"/>
</svg>
