<svg fill="none" height="16" viewBox="0 0 16 16" width="16" xmlns="http://www.w3.org/2000/svg" xmlns:xlink="http://www.w3.org/1999/xlink"><clipPath id="a"><path d="m0 0h16v16h-16z"/></clipPath><g clip-path="url(#a)" fill="#23af7c"><path d="m9 1h-2v4h2z"/><path d="m9 11h-2v4h2z"/><path d="m1 7v2h4v-2z"/><path d="m11 7v2h4v-2z"/><path d="m4.75706 3.34319c-.39052-.39053-1.02369-.39053-1.41421 0-.39053.39052-.39053 1.02369 0 1.41421l.24264.24264c.39053.39053 1.02369.39053 1.41422 0 .39052-.39052.39052-1.02369 0-1.41421z"/><path d="m12.4143 10.9999c-.3905-.3905-1.0237-.3905-1.4142 0s-.3905 1.0237 0 1.4142l.2426.2427c.3905.3905 1.0237.3905 1.4142 0 .3906-.3905.3906-1.0237 0-1.4142z"/><path d="m3.58549 11-.24264.2426c-.39053.3905-.39053 1.0237 0 1.4142.39052.3905 1.02369.3905 1.41421 0l.24265-.2426c.39052-.3906.39052-1.0237 0-1.4142-.39053-.3906-1.02369-.3906-1.41422 0z"/><path d="m11.2427 3.34322-.2426.24264c-.3905.39053-.3905 1.02369 0 1.41422.3905.39052 1.0237.39052 1.4142 0l.2426-.24265c.3906-.39052.3906-1.02369 0-1.41421-.3905-.39052-1.0237-.39053-1.4142 0z"/></g></svg>