<svg fill="none" height="24" viewBox="0 0 24 24" width="24" xmlns="http://www.w3.org/2000/svg" xmlns:xlink="http://www.w3.org/1999/xlink"><clipPath id="a"><path d="m0 0h24v24h-24z"/></clipPath><g clip-path="url(#a)" fill="#6c7570"><path d="m12 2c-1.9778 0-3.91121.58649-5.5557 1.6853-1.64449 1.09882-2.92621 2.6606-3.68309 4.48787-.75688 1.82723-.95491 3.83793-.56906 5.77773s1.33826 3.7216 2.73679 5.1202c1.39852 1.3985 3.18035 2.3509 5.12016 2.7368 1.9398.3858 3.9505.1878 5.7777-.5691 1.8273-.7569 3.3891-2.0386 4.4879-3.6831s1.6853-3.5779 1.6853-5.5557c-.003-2.65123-1.0576-5.19301-2.9323-7.06772s-4.4165-2.92925-7.0677-2.93228zm0 18c-1.5822 0-3.12896-.4692-4.44456-1.3482-1.31559-.8791-2.34097-2.1285-2.94647-3.5903s-.76393-3.0704-.45525-4.6222c.30868-1.55187 1.07061-2.97733 2.18943-4.09615s2.54428-1.88075 4.09615-2.18943c1.5518-.30868 3.1604-.15026 4.6222.45524 1.4618.60551 2.7112 1.63088 3.5903 2.94648.879 1.31559 1.3482 2.86226 1.3482 4.44456-.0024 2.121-.8461 4.1544-2.3458 5.6542-1.4998 1.4997-3.5332 2.3434-5.6542 2.3458z"/><path d="m17 11h-10v2h10z"/></g></svg>