<svg width="50" height="44" viewBox="0 0 50 44" fill="none" xmlns="http://www.w3.org/2000/svg">
<path d="M49 22C49 33.4817 38.3788 43 25 43C11.6212 43 1 33.4817 1 22C1 10.5183 11.6212 1 25 1C38.3788 1 49 10.5183 49 22Z" stroke="#DAE0DC" stroke-width="2"/>
<path d="M25 1C29.9798 1 34.6054 2.32708 38.44 4.59912C41.954 6.68117 44.8037 9.55676 46.6532 12.9318C48.1575 15.6769 49 18.7523 49 22C49 25.825 47.8313 29.4112 45.7892 32.5C43.8762 35.3937 41.1967 37.8509 37.9936 39.6591C34.2487 41.7731 29.7881 43 25 43C20.2262 43 15.778 41.7805 12.04 39.678C8.63274 37.7616 5.81562 35.1116 3.88 31.9829C2.04302 29.0137 1 25.6135 1 22C1 18.3865 2.04302 14.9863 3.88 12.0171C5.81562 8.88842 8.63274 6.23841 12.04 4.32198" stroke="#23AF7C" stroke-width="2"/>
</svg>
