<svg width="50" height="44" viewBox="0 0 50 44" fill="none" xmlns="http://www.w3.org/2000/svg">
<path d="M49 22C49 33.4817 38.3788 43 25 43C11.6212 43 1 33.4817 1 22C1 10.5183 11.6212 1 25 1C38.3788 1 49 10.5183 49 22Z" stroke="#DAE0DC" stroke-width="2"/>
<path d="M24.9991 1C29.9789 1 34.6044 2.32708 38.4391 4.59912C41.953 6.68117 44.8028 9.55676 46.6523 12.9318C48.1565 15.6769 48.9991 18.7523 48.9991 22C48.9991 25.825 47.8303 29.4112 45.7883 32.5C43.8752 35.3937 41.1957 37.8509 37.9926 39.6591C34.2477 41.7731 29.7871 43 24.9991 43C20.2253 43 15.777 41.7805 12.0391 39.678" stroke="#DFB314" stroke-width="2"/>
</svg>
