<svg fill="none" height="20" viewBox="0 0 200 20" width="200" xmlns="http://www.w3.org/2000/svg" xmlns:xlink="http://www.w3.org/1999/xlink"><clipPath id="a"><path d="m0 0h199.191v20h-199.191z"/></clipPath><g clip-path="url(#a)"><g fill="#f4fcf4"><path d="m22.7078 13.3245c0 4.0482-3.6194 6.6755-10.563 6.6755-4.87937 0-9.11535-1.2869-12.1448-3.5657l3.24389-3.7531c2.14496 1.6084 5.33518 2.7076 9.00821 2.7076 2.6809 0 3.9946-.4559 3.9946-1.394 0-.9117-1.0725-1.2333-4.5578-1.5283-5.76405-.5093-10.884523-1.823-10.884523-6.11262 0-4.10179 4.477143-6.35384948 10.563023-6.35384948 3.9409 0 7.8284.91158348 10.536 2.70777948l-3.1098 3.8071c-2.118-1.39428-4.6112-1.95723-7.4262-1.95723-1.90357 0-4.10195.24142-4.10195 1.26022 0 .91145 1.6891 1.09919 4.71855 1.34034 6.2733.50953 10.7238 1.71582 10.7238 6.16626z"/><path d="m46.057 14.6648v4.7186h-20.6164v-18.766762h20.3216v4.718682h-13.9143v2.38585h11.3404v4.34333h-11.3404v2.6003z"/><path d="m60.134 0c-7.5069 0-12.4933 3.59253-12.4933 10.0002 0 6.4074 4.9864 9.9998 12.4933 9.9998 7.5333 0 12.52-3.5924 12.52-9.9998 0-6.40767-4.9867-10.0002-12.52-10.0002zm.0133 14.7988c-2.9783 0-5.3926-2.1485-5.3926-4.79883 0-2.65031 2.4144-4.7988 5.3926-4.7988 2.9784 0 5.3928 2.14851 5.3928 4.79882s-2.4144 4.79881-5.3928 4.79881z"/><path d="m136.485 3.91168h-1.451c-1.81 0-4.34 1.46753-4.34 3.27786v-2.74162h-6.327v14.93278h6.327v-7.5338c0-.4216.083-.8391.244-1.2286s.398-.74341.696-1.04153.652-.5346 1.042-.69594c.389-.16134.807-.24437 1.228-.24437h.627c.596 0 1.167.23649 1.589.65754.422.42104.659.9922.66 1.588v8.4987h6.3v-8.9006c0-3.8338-2.386-6.56842-6.595-6.56842z"/><path d="m113.961 15.7616c2.225 0 3.485-.5096 4.906-1.5284l3.056 3.1635c-2.144 1.9036-4.959 2.6006-8.311 2.6006-6.514 0-10.294-3.0295-10.294-8.0965 0-5.01339 3.753-8.09651 9.812-8.09651 5.362 0 9.383 2.65423 9.383 7.93571.011.4981-.053.9949-.187 1.4744h-13.03c.483 1.8499 2.064 2.5472 4.665 2.5472zm-4.531-5.5766 7.373-.0268c-.51-1.42094-1.689-2.17162-3.62-2.17162-1.876.00001-3.217.69701-3.753 2.19842z"/><path d="m192.891 19.3807v-18.764062h6.3v18.764062z"/></g><path d="m93.9217 12.778c1.7241 0 3.1218-1.2437 3.1218-2.77801 0-1.53427-1.3977-2.77804-3.1218-2.77804-1.7242 0-3.1219 1.24377-3.1219 2.77804 0 1.53431 1.3977 2.77801 3.1219 2.77801z" fill="#23af7c"/><path d="m98.5721 12.4207c-.5197.7484-1.216 1.357-2.0272 1.7718s-1.7122.6231-2.6232.6063c-2.9783 0-5.3927-2.1485-5.3927-4.79883 0-2.65031 2.4144-4.79881 5.3927-4.79881.911-.01677 1.812.19149 2.6232.60632.8112.41482 1.5075 1.0234 2.0272 1.77176l4.6529-4.79294c-2.196-1.820816-5.4138-2.78626948-9.3166-2.78626948-7.5069 0-12.4933 3.59252948-12.4933 10.00016948 0 6.4074 4.9864 9.9998 12.4933 9.9998 3.9029 0 7.1206-.9655 9.3166-2.7863z" fill="#f4fcf4"/><path d="m158.58 14.1921-1.692.5972c-.253.0928-.513.1641-.778.2133-.229.0404-.461.0611-.694.0617-1.394 0-2.252-.7774-2.252-1.957v-4.37004h5.416v-4.28941h-5.416v-3.831212h-6.3v3.831212h-2.52v4.28941h2.52v5.38884c0 3.8338 2.654 5.8445 6.327 5.8445 1.738-.0007 3.451-.4087 5.002-1.1913 0 0 .266-.1541.387-.2315z" fill="#f4fcf4"/><path d="m190.249 16.5927v-4.2527c0-4.65493-1.803-8.42832-8.428-8.42832h-6.149v4.72478h5.753c.346-.00001.688.06803 1.007.20025.319.13221.609.32601.854.57033.244.24431.438.53436.57.85356s.2.6614.2 1.0069v.5797c-1.126-1.1526-3.11-1.9303-5.549-1.9303-3.083 0-6.998 1.2332-6.998 4.9867 0 3.7801 3.915 5.0134 6.998 5.0134 2.439 0 4.423-.7774 5.549-1.9036v.0537c.026.4762.194.9337.483 1.3136h6.354c-.451-.8585-.673-1.8188-.644-2.788zm-6.086-1.5551c-.938 1.1529-2.493 1.4477-3.726 1.4477-1.26 0-2.815-.3485-2.815-1.5817 0-1.2066 1.555-1.5551 2.815-1.5551 1.233 0 2.788.2951 3.726 1.4477z" fill="#f4fcf4"/><path d="m171.817 3.91168c-1.81 0-4.34 1.4674-4.341 3.2776v-2.74136h-6.327v14.93278h6.327v-7.5341c.001-.8514.339-1.6679.941-2.2699.602-.60201 1.419-.94021 2.27-.94024h2.416v-4.72478z" fill="#f4fcf4"/></g></svg>