<svg id="Layer_1" data-name="Layer 1" xmlns="http://www.w3.org/2000/svg" viewBox="0 0 88 88"><defs><style>.cls-1{fill:#28604c;}.cls-2{fill:#23af7c;}</style></defs><ellipse class="cls-1" cx="50.0324" cy="43.99993" rx="11.75713" ry="10.46234"/><path class="cls-1" d="M67.54614,53.1167a20.85489,20.85489,0,0,1-17.51367,8.956c-11.21667,0-20.30957-8.09155-20.30957-18.07287s9.0929-18.07275,20.30957-18.07275a20.855,20.855,0,0,1,17.51367,8.95605L85.06836,16.83252C76.79883,9.9751,64.68066,6.33911,49.98218,6.33911,21.7107,6.33911,2.9314,19.8689,2.9314,44.00073c0,24.13086,18.7793,37.66016,47.05078,37.66016,14.69873,0,26.81689-3.636,35.08642-10.49341Z"/><ellipse class="cls-2" cx="50.0324" cy="43.99993" rx="11.75713" ry="10.46234"/><path class="cls-1" d="M67.54614,53.1167a20.85489,20.85489,0,0,1-17.51367,8.956c-11.21667,0-20.30957-8.09155-20.30957-18.07287s9.0929-18.07275,20.30957-18.07275a20.855,20.855,0,0,1,17.51367,8.95605L85.06836,16.83252C76.79883,9.9751,64.68066,6.33911,49.98218,6.33911,21.7107,6.33911,2.9314,19.8689,2.9314,44.00073c0,24.13086,18.7793,37.66016,47.05078,37.66016,14.69873,0,26.81689-3.636,35.08642-10.49341Z"/></svg>