<svg fill="none" height="16" viewBox="0 0 16 16" width="16" xmlns="http://www.w3.org/2000/svg" xmlns:xlink="http://www.w3.org/1999/xlink"><clipPath id="a"><path d="m0 0h16v16h-16z"/></clipPath><g clip-path="url(#a)" fill="#11211b"><path d="m8 2v1.86667c1.01528 0 2.0078.30106 2.8519.86512.8442.56406 1.5021 1.36578 1.8907 2.30377.3885.93799.4902 1.97013.2921 2.96594-.1981.9957-.687 1.9104-1.4049 2.6283s-1.63257 1.2068-2.62834 1.4049-2.02791.0964-2.9659-.2921c-.93799-.3886-1.73971-1.0465-2.30377-1.8907-.56406-.8441-.86512-1.8366-.86512-2.8519 0-.15751.00968-.31274.02364-.46667h-1.86667c-.01031.15495-.02364.30916-.02364.46667 0 1.3845.41054 2.7378 1.17971 3.889.76917 1.1511 1.86242 2.0483 3.14151 2.5782 1.27908.5298 2.68654.6684 4.04441.3983s2.60517-.9368 3.58407-1.9158c.979-.9789 1.6457-2.2262 1.9158-3.5841.2701-1.35784.1315-2.7653-.3983-4.04438-.5299-1.27909-1.4271-2.37234-2.5782-3.14151-1.1512-.76917-2.50453-1.17971-3.889-1.17971z"/><path d="m7.99969 0-4.82 3 4.82 3z"/></g></svg>