<svg fill="none" height="24" viewBox="0 0 24 24" width="24" xmlns="http://www.w3.org/2000/svg" xmlns:xlink="http://www.w3.org/1999/xlink"><clipPath id="a"><path d="m0 0h24v24h-24z"/></clipPath><g clip-path="url(#a)" fill="#236caf"><path d="m19 15.1716v-4.8781c.0277-1.85567-.6627-3.65024-1.927-5.00879-1.2644-1.35855-3.0048-2.17597-4.8576-2.28147-.937-.02884-1.8701.1308-2.74422.46945-.87408.33865-1.67124.8494-2.34419 1.50196s-1.20798 1.43363-1.57335 2.29688-.55364 1.79109-.55364 2.72847v5.1716c-.00001 1.811-.71943 3.5478-2 4.8284h18c-1.2806-1.2806-2-3.0174-2-4.8284zm-12.46094 2.8284c.30668-.9115.46238-1.8669.46094-2.8286v-5.1714c.00156-1.3256.52884-2.59646 1.46618-3.53381.93735-.93734 2.20822-1.46463 3.53382-1.46618l.1553.00244c1.3331.08928 2.5806.68899 3.4829 1.67443.9023.98543 1.39 2.28075 1.3618 3.61662v4.8779c-.0014.9617.1543 1.9171.4609 2.8286z"/><path d="m12 22c1.1046 0 2-.8954 2-2s-.8954-2-2-2-2 .8954-2 2 .8954 2 2 2z"/><path d="m12 4c.5523 0 1-.44772 1-1s-.4477-1-1-1-1 .44772-1 1 .4477 1 1 1z"/></g></svg>