<svg fill="none" height="16" viewBox="0 0 16 16" width="16" xmlns="http://www.w3.org/2000/svg"><g fill="#28604c"><path d="m8 0c-2.12099.00242701-4.15441.846061-5.65417 2.34583-1.499769 1.49976-2.34340299 3.53318-2.34583 5.65417.00242701 2.121.846061 4.1544 2.34583 5.6542 1.49976 1.4997 3.53318 2.3434 5.65417 2.3458 2.121-.0024 4.1544-.8461 5.6542-2.3458 1.4997-1.4998 2.3434-3.5332 2.3458-5.6542-.0024-2.12099-.8461-4.15441-2.3458-5.65417-1.4998-1.499769-3.5332-2.34340299-5.6542-2.34583zm0 14c-1.59076-.0017-3.11588-.6344-4.24072-1.7593-1.12484-1.1248-1.75754-2.64994-1.75928-4.2407.00174-1.59076.63444-3.11588 1.75928-4.24072s2.64996-1.75754 4.24072-1.75928c1.59076.00174 3.1159.63444 4.2407 1.75928 1.1249 1.12484 1.7576 2.64996 1.7593 4.24072-.0017 1.59076-.6344 3.1159-1.7593 4.2407-1.1248 1.1249-2.64994 1.7576-4.2407 1.7593z"/><path d="m9 11v-4h-2-1v1h1v3h-1v1h1 2 1v-1z"/><path d="m9 4h-2v2h2z"/></g></svg>