<svg fill="none" height="20" width="200" xmlns="http://www.w3.org/2000/svg"><clipPath id="a"><path d="M0 0h199.191v20H0z"/></clipPath><g clip-path="url(#a)"><path d="M22.708 13.325c0 4.048-3.62 6.675-10.563 6.675C7.265 20 3.029 18.713 0 16.434l3.244-3.753c2.145 1.609 5.335 2.708 9.008 2.708 2.681 0 3.995-.456 3.995-1.394 0-.912-1.073-1.233-4.558-1.528C5.925 11.957.804 10.643.804 6.353.804 2.252 5.282 0 11.367 0c3.941 0 7.829.912 10.536 2.708l-3.11 3.807c-2.117-1.394-4.61-1.957-7.426-1.957-1.903 0-4.102.241-4.102 1.26 0 .911 1.69 1.1 4.719 1.34 6.273.51 10.724 1.716 10.724 6.167zm23.349 1.34v4.718H25.441V.617h20.321v4.718H31.848v2.386h11.34v4.344h-11.34v2.6zM60.134 0c-7.507 0-12.493 3.593-12.493 10 0 6.408 4.986 10 12.493 10 7.533 0 12.52-3.592 12.52-10 0-6.407-4.987-10-12.52-10zm.013 14.799c-2.978 0-5.392-2.149-5.392-4.799 0-2.65 2.414-4.799 5.392-4.799 2.979 0 5.393 2.149 5.393 4.799s-2.414 4.799-5.393 4.799zm76.338-10.887h-1.451c-1.81 0-4.34 1.467-4.34 3.278V4.448h-6.327V19.38h6.327v-7.534a3.217 3.217 0 0 1 .94-2.27 3.206 3.206 0 0 1 2.27-.94h.627a2.25 2.25 0 0 1 2.249 2.245v8.499h6.3v-8.9c0-3.835-2.386-6.57-6.595-6.57zm-22.524 11.85c2.225 0 3.485-.51 4.906-1.529l3.056 3.164c-2.144 1.903-4.959 2.6-8.311 2.6-6.514 0-10.294-3.03-10.294-8.096 0-5.014 3.753-8.097 9.812-8.097 5.362 0 9.383 2.655 9.383 7.936a5.06 5.06 0 0 1-.187 1.474h-13.03c.483 1.85 2.064 2.548 4.665 2.548zm-4.531-5.577 7.373-.027c-.51-1.42-1.689-2.171-3.62-2.171-1.876 0-3.217.697-3.753 2.198zm83.461 9.195V.618h6.3V19.38z" fill="#f4fcf4"/><path d="M93.922 12.778c1.724 0 3.122-1.244 3.122-2.778s-1.398-2.778-3.122-2.778S90.8 8.466 90.8 10s1.398 2.778 3.122 2.778z" fill="#23af7c"/><path d="M98.572 12.42a5.537 5.537 0 0 1-4.65 2.379c-2.979 0-5.393-2.149-5.393-4.799 0-2.65 2.414-4.799 5.393-4.799a5.538 5.538 0 0 1 4.65 2.378l4.653-4.793C101.029.966 97.811 0 93.908 0c-7.506 0-12.493 3.593-12.493 10 0 6.408 4.987 10 12.493 10 3.903 0 7.121-.965 9.317-2.786zm60.008 1.772-1.692.597a4.805 4.805 0 0 1-.778.214c-.229.04-.461.06-.694.061-1.394 0-2.252-.777-2.252-1.957v-4.37h5.416v-4.29h-5.416V.618h-6.3v3.83h-2.52v4.29h2.52v5.39c0 3.833 2.654 5.844 6.327 5.844a11.125 11.125 0 0 0 5.002-1.192s.266-.154.387-.231zm31.669 2.401V12.34c0-4.655-1.803-8.428-8.428-8.428h-6.149v4.724h5.753a2.629 2.629 0 0 1 2.631 2.632v.58c-1.126-1.153-3.11-1.931-5.549-1.931-3.083 0-6.998 1.233-6.998 4.987 0 3.78 3.915 5.013 6.998 5.013 2.439 0 4.423-.777 5.549-1.904v.054c.026.476.194.934.483 1.314h6.354a5.633 5.633 0 0 1-.644-2.788zm-6.086-1.555c-.938 1.153-2.493 1.447-3.726 1.447-1.26 0-2.815-.348-2.815-1.581 0-1.207 1.555-1.555 2.815-1.555 1.233 0 2.788.295 3.726 1.447zM171.817 3.912c-1.81 0-4.34 1.467-4.341 3.277V4.448h-6.327V19.38h6.327v-7.534a3.215 3.215 0 0 1 3.211-3.21h2.416V3.911z" fill="#f4fcf4"/></g></svg>