<svg fill="none" height="24" width="24" xmlns="http://www.w3.org/2000/svg"><clipPath id="a"><path d="M0 0h24v24H0z"/></clipPath><g clip-path="url(#a)" fill="#236caf"><path d="M19 15.172v-4.879a7.195 7.195 0 0 0-6.785-7.29A7 7 0 0 0 5 10v5.172c0 1.81-.72 3.547-2 4.828h18a6.828 6.828 0 0 1-2-4.828zM6.54 18A8.828 8.828 0 0 0 7 15.171V10a5.006 5.006 0 0 1 5-5l.155.002A5.193 5.193 0 0 1 17 10.294v4.877A8.832 8.832 0 0 0 17.46 18z"/><path d="M12 22a2 2 0 1 0 0-4 2 2 0 0 0 0 4zm0-18a1 1 0 1 0 0-2 1 1 0 0 0 0 2z"/></g></svg>